<svg xmlns="http://www.w3.org/2000/svg" viewBox="0 0 1200 520" role="img" aria-labelledby="title desc">
  <title id="title">Routine hero</title>
  <desc id="desc">Illustration abstraite d'une routine d'entrainement a la maison.</desc>
  <defs>
    <linearGradient id="g1" x1="0" x2="1" y1="0" y2="1">
      <stop offset="0%" stop-color="#f5f7fb"/>
      <stop offset="100%" stop-color="#eaf0f8"/>
    </linearGradient>
    <linearGradient id="g2" x1="0" x2="1" y1="0" y2="0">
      <stop offset="0%" stop-color="#1f2937"/>
      <stop offset="100%" stop-color="#111827"/>
    </linearGradient>
  </defs>
  <rect width="1200" height="520" fill="url(#g1)"/>
  <circle cx="210" cy="130" r="80" fill="#dbeafe"/>
  <circle cx="980" cy="430" r="110" fill="#dcfce7"/>
  <rect x="80" y="100" width="540" height="320" rx="28" fill="#ffffff" stroke="#e5e7eb"/>
  <rect x="120" y="146" width="210" height="18" rx="9" fill="#e5e7eb"/>
  <rect x="120" y="182" width="420" height="14" rx="7" fill="#f1f5f9"/>
  <rect x="120" y="224" width="160" height="78" rx="16" fill="#111827"/>
  <rect x="300" y="224" width="160" height="78" rx="16" fill="#e2e8f0"/>
  <rect x="480" y="224" width="60" height="78" rx="16" fill="#e2e8f0"/>
  <rect x="120" y="324" width="280" height="14" rx="7" fill="#f1f5f9"/>
  <rect x="120" y="350" width="220" height="14" rx="7" fill="#f1f5f9"/>
  <rect x="700" y="86" width="410" height="350" rx="36" fill="#0f172a"/>
  <rect x="735" y="125" width="340" height="230" rx="24" fill="#111827" stroke="#374151"/>
  <circle cx="905" cy="235" r="58" fill="#10b981"/>
  <path d="M885 235l16 16 26-30" fill="none" stroke="#ffffff" stroke-width="12" stroke-linecap="round" stroke-linejoin="round"/>
  <rect x="780" y="380" width="250" height="20" rx="10" fill="url(#g2)"/>
</svg>
